<svg id="Layer_1" data-name="Layer 1" xmlns="http://www.w3.org/2000/svg" width="587.18" height="155.37" viewBox="0 0 587.18 155.37">
  <defs>
    <style>
      .cls-1 {
        fill: #fff;
      }

      .cls-2 {
        fill: #c02126;
      }

      .cls-3 {
        fill: none;
        stroke: #231f20;
      }
    </style>
  </defs>
  <title>logo</title>
  <g>
    <g>
      <path class="cls-1" d="M3,80V94.37c0,28,22.94,51.36,61.38,62.54a4.85,4.85,0,0,0,1.18.19V80H3Z" transform="translate(-2.5 -2.24)"/>
      <path class="cls-1" d="M128.45,80V7.52c0-1.86,0-4.52,0-4.52a8,8,0,0,1-.89.76c-14.3,11.5-46,11.8-60.29.3-1-.83-1.29-1.17-1.68-1V80h62.89Z" transform="translate(-2.5 -2.24)"/>
      <path class="cls-2" d="M65.56,3a7.86,7.86,0,0,0-1.35,1c-14.3,11.5-46,11.2-60.29-.3L3,3.17s0,2.5,0,4.35V80H65.56V3Z" transform="translate(-2.5 -2.24)"/>
      <path class="cls-2" d="M67.07,156.91c38.43-11.18,61.38-34.56,61.38-62.54V80H65.56v77h0.16A4.85,4.85,0,0,0,67.07,156.91Z" transform="translate(-2.5 -2.24)"/>
      <path d="M42.5,27.54a31.91,31.91,0,0,0,3.73.94A2.94,2.94,0,0,0,47.8,28a2.38,2.38,0,0,0,1-1.42H50l0.54,13.09H49.25a18.86,18.86,0,0,0-3-6.29,11.69,11.69,0,0,0-9.64-4.5,12.25,12.25,0,0,0-10,4.84q-3.88,4.84-3.88,13.31,0,7.8,4.08,12.45A13.16,13.16,0,0,0,37.1,64.16,16.6,16.6,0,0,0,45.43,62a25,25,0,0,0,4.81-3.7l1.08,1.08a19.53,19.53,0,0,1-4.81,4.3A19.32,19.32,0,0,1,35.9,66.8q-9.39,0-14.91-6A19.71,19.71,0,0,1,15.9,46.94a20.16,20.16,0,0,1,5.38-14.28Q26.94,26.6,36,26.6A23.84,23.84,0,0,1,42.5,27.54Z" transform="translate(-2.5 -2.24)"/>
      <path d="M78.26,65.83V64.75a4.73,4.73,0,0,0,3.37-1.69q1.12-1.44,3.85-7.87L97.62,26.6h1.16l14.52,33a13.93,13.93,0,0,0,2.32,4.06,5.53,5.53,0,0,0,2.92,1.06v1.08H103.71V64.75A13.09,13.09,0,0,0,107,64.2a1.56,1.56,0,0,0,.74-1.6,7,7,0,0,0-.28-1.5,16.33,16.33,0,0,0-.8-2.27l-2.33-5.6H89q-2.27,5.72-2.71,7a6.46,6.46,0,0,0-.44,2,2.06,2.06,0,0,0,1.19,2,9.49,9.49,0,0,0,2.78.51v1.08H78.26Zm25.09-15-6.68-16L90,50.87h13.38Z" transform="translate(-2.5 -2.24)"/>
      <path d="M47,136.67q3.51-.2,4.54-1.09t1-4.14V105.51q0-3.22-1-4.14T47,100.28V99.2H63.31q7,0,11.1,2.25t4.11,7.75a7.32,7.32,0,0,1-2.87,6.26,13.59,13.59,0,0,1-4.86,2,17.41,17.41,0,0,1,6.86,3.23A7.62,7.62,0,0,1,80.48,127a9.34,9.34,0,0,1-6.31,9.38A22,22,0,0,1,66,137.75H47v-1.08ZM68.9,115.53a6.18,6.18,0,0,0,3.7-6.13q0-5.21-4.27-7a19.45,19.45,0,0,0-7.17-1,4.74,4.74,0,0,0-2.25.31,2.23,2.23,0,0,0-.43,1.71v13.17l5.55-.09A12.28,12.28,0,0,0,68.9,115.53Zm1.88,18.38q3-1.73,3-6.66t-3.53-6.69a19.81,19.81,0,0,0-9-1.79H59.58l-1.1,0v14.51a2,2,0,0,0,.85,1.95,10.75,10.75,0,0,0,4,.44A14.8,14.8,0,0,0,70.77,133.91Z" transform="translate(-2.5 -2.24)"/>
    </g>
    <g>
      <path class="cls-3" d="M3,80V94.37c0,28,22.94,51.36,61.38,62.54a4.85,4.85,0,0,0,1.18.19V80H3Z" transform="translate(-2.5 -2.24)"/>
      <path class="cls-3" d="M128.45,80V7.52c0-1.86,0-4.52,0-4.52a8,8,0,0,1-.89.76c-14.3,11.5-46,11.8-60.29.3-1-.83-1.29-1.17-1.68-1V80h62.89Z" transform="translate(-2.5 -2.24)"/>
      <path class="cls-3" d="M65.56,3a7.86,7.86,0,0,0-1.35,1c-14.3,11.5-46,11.2-60.29-.3L3,3.17s0,2.5,0,4.35V80H65.56V3Z" transform="translate(-2.5 -2.24)"/>
      <path class="cls-3" d="M67.07,156.91c38.43-11.18,61.38-34.56,61.38-62.54V80H65.56v77h0.16A4.85,4.85,0,0,0,67.07,156.91Z" transform="translate(-2.5 -2.24)"/>
      <path class="cls-3" d="M42.5,27.54a31.91,31.91,0,0,0,3.73.94A2.94,2.94,0,0,0,47.8,28a2.38,2.38,0,0,0,1-1.42H50l0.54,13.09H49.25a18.86,18.86,0,0,0-3-6.29,11.69,11.69,0,0,0-9.64-4.5,12.25,12.25,0,0,0-10,4.84q-3.88,4.84-3.88,13.31,0,7.8,4.08,12.45A13.16,13.16,0,0,0,37.1,64.16,16.6,16.6,0,0,0,45.43,62a25,25,0,0,0,4.81-3.7l1.08,1.08a19.53,19.53,0,0,1-4.81,4.3A19.32,19.32,0,0,1,35.9,66.8q-9.39,0-14.91-6A19.71,19.71,0,0,1,15.9,46.94a20.16,20.16,0,0,1,5.38-14.28Q26.94,26.6,36,26.6A23.84,23.84,0,0,1,42.5,27.54Z" transform="translate(-2.5 -2.24)"/>
      <path class="cls-3" d="M78.26,65.83V64.75a4.73,4.73,0,0,0,3.37-1.69q1.12-1.44,3.85-7.87L97.62,26.6h1.16l14.52,33a13.93,13.93,0,0,0,2.32,4.06,5.53,5.53,0,0,0,2.92,1.06v1.08H103.71V64.75A13.09,13.09,0,0,0,107,64.2a1.56,1.56,0,0,0,.74-1.6,7,7,0,0,0-.28-1.5,16.33,16.33,0,0,0-.8-2.27l-2.33-5.6H89q-2.27,5.72-2.71,7a6.46,6.46,0,0,0-.44,2,2.06,2.06,0,0,0,1.19,2,9.49,9.49,0,0,0,2.78.51v1.08H78.26Zm25.09-15-6.68-16L90,50.87h13.38Z" transform="translate(-2.5 -2.24)"/>
      <path class="cls-3" d="M47,136.67q3.51-.2,4.54-1.09t1-4.14V105.51q0-3.22-1-4.14T47,100.28V99.2H63.31q7,0,11.1,2.25t4.11,7.75a7.32,7.32,0,0,1-2.87,6.26,13.59,13.59,0,0,1-4.86,2,17.41,17.41,0,0,1,6.86,3.23A7.62,7.62,0,0,1,80.48,127a9.34,9.34,0,0,1-6.31,9.38A22,22,0,0,1,66,137.75H47v-1.08ZM68.9,115.53a6.18,6.18,0,0,0,3.7-6.13q0-5.21-4.27-7a19.45,19.45,0,0,0-7.17-1,4.74,4.74,0,0,0-2.25.31,2.23,2.23,0,0,0-.43,1.71v13.17l5.55-.09A12.28,12.28,0,0,0,68.9,115.53Zm1.88,18.38q3-1.73,3-6.66t-3.53-6.69a19.81,19.81,0,0,0-9-1.79H59.58l-1.1,0v14.51a2,2,0,0,0,.85,1.95,10.75,10.75,0,0,0,4,.44A14.8,14.8,0,0,0,70.77,133.91Z" transform="translate(-2.5 -2.24)"/>
    </g>
  </g>
  <g>
    <path d="M205.87,39.38l0.06,0.17a12.14,12.14,0,0,1-4,9.8Q197.79,53,191.08,53a14,14,0,0,1-11.24-5q-4.27-5-4.27-13V28.17q0-8,4.27-13a14,14,0,0,1,11.24-5.06q6.79,0,10.88,3.58t4,9.86l-0.06.17h-3.21a10.14,10.14,0,0,0-3.08-7.87Q196.5,13,191.08,13a10.59,10.59,0,0,0-8.79,4.24A17.14,17.14,0,0,0,179,28.11V35q0,6.71,3.31,10.94a10.61,10.61,0,0,0,8.79,4.23q5.42,0,8.5-2.75t3.08-8h3.21Z" transform="translate(-2.5 -2.24)"/>
    <path d="M218.2,49.52h21.56v2.9h-25V10.68h3.44V49.52Z" transform="translate(-2.5 -2.24)"/>
    <path d="M274.88,10.68V38.4q0,6.88-4.21,10.75A15.39,15.39,0,0,1,259.83,53a15,15,0,0,1-10.68-3.88Q245,45.25,245,38.4V10.68h3.44V38.4a11.5,11.5,0,0,0,3.2,8.56,11.14,11.14,0,0,0,8.19,3.17A11.56,11.56,0,0,0,268.2,47a11.36,11.36,0,0,0,3.27-8.57V10.68h3.41Z" transform="translate(-2.5 -2.24)"/>
    <path d="M284.94,52.42V10.68h12.18q6.51,0,10.15,2.74t3.64,8.24a8.87,8.87,0,0,1-1.76,5.48,9.42,9.42,0,0,1-4.75,3.33,9.75,9.75,0,0,1,6.47,3.44,10.34,10.34,0,0,1,2.51,6.91q0,5.59-3.63,8.6t-9.71,3H284.94Zm3.44-23h10a10.44,10.44,0,0,0,6.69-2.08,7.13,7.13,0,0,0,2.37-5.78,7,7,0,0,0-2.64-5.95q-2.64-2-7.71-2h-8.74V29.4Zm0,2.9V49.52h11.67a10.73,10.73,0,0,0,7.25-2.28,8,8,0,0,0,2.64-6.38,7.82,7.82,0,0,0-2.59-6.09,10.55,10.55,0,0,0-7-2.48h-12Z" transform="translate(-2.5 -2.24)"/>
    <path d="M357.28,40.78H339l-4.21,11.64h-3.55l15.34-41.74h3.24L365,52.42h-3.56ZM340,37.71h16.11l-7.91-22.13h-0.17Z" transform="translate(-2.5 -2.24)"/>
    <path d="M396.12,13.6H381.9V52.42h-3.41V13.6H363.78V10.68h32.34V13.6Z" transform="translate(-2.5 -2.24)"/>
    <path d="M406.27,49.52h21.56v2.9h-25V10.68h3.44V49.52Z" transform="translate(-2.5 -2.24)"/>
    <path d="M457.33,32.21H438.61V49.52h21.65v2.9H435.17V10.68h24.94V13.6h-21.5V29.28h18.72v2.92Z" transform="translate(-2.5 -2.24)"/>
    <path d="M495.92,13.6H481.7V52.42h-3.41V13.6H463.58V10.68h32.34V13.6Z" transform="translate(-2.5 -2.24)"/>
    <path d="M507,52.42h-3.44V10.68H507V52.42Z" transform="translate(-2.5 -2.24)"/>
    <path d="M547.27,39.38l0.06,0.17a12.14,12.14,0,0,1-4,9.8Q539.19,53,532.48,53a14,14,0,0,1-11.24-5Q517,43,517,35V28.17q0-8,4.27-13a14,14,0,0,1,11.24-5.06q6.79,0,10.88,3.58t4,9.86l-0.06.17h-3.21A10.14,10.14,0,0,0,541,15.82Q537.9,13,532.48,13a10.59,10.59,0,0,0-8.79,4.24,17.14,17.14,0,0,0-3.31,10.87V35q0,6.71,3.31,10.94a10.6,10.6,0,0,0,8.79,4.23q5.42,0,8.5-2.75t3.08-8h3.21Z" transform="translate(-2.5 -2.24)"/>
    <path d="M586.78,35q0,8.09-4.43,13.07t-11.88,5a14.79,14.79,0,0,1-11.71-5q-4.37-5-4.37-13.07V28.17q0-8.06,4.36-13.07a14.71,14.71,0,0,1,11.7-5q7.45,0,11.9,5t4.44,13.07V35Zm-3.41-6.85q0-6.77-3.43-10.89a11.68,11.68,0,0,0-9.5-4.13,11.26,11.26,0,0,0-9.29,4.13q-3.33,4.13-3.33,10.89V35q0,6.82,3.34,11a11.3,11.3,0,0,0,9.3,4.13q6.11,0,9.5-4.11t3.4-11V28.11Z" transform="translate(-2.5 -2.24)"/>
    <path d="M178.16,150.28v-80h26.21q14.89,0,23.22,5.52t8.33,16.46a19.41,19.41,0,0,1-2.64,10.14,16.24,16.24,0,0,1-8.24,6.68q7.14,1.54,10.58,6.37A18.78,18.78,0,0,1,239,126.6q0,11.7-7.86,17.69t-22.53,6h-30.5Zm18.57-46.65H204q6.7,0,10-2.33a8,8,0,0,0,3.3-7q0-5.11-3.19-7.45t-9.78-2.33h-7.64v19.07Zm0,12.31V136h11.92q5.93,0,8.9-2.34t3-7.17q0-5.11-2.61-7.75t-8.6-2.8H196.73Z" transform="translate(-2.5 -2.24)"/>
    <path d="M296.69,116H268.5V136h33.79v14.29H249.92v-80h52.42V84.56H268.5v17.2h28.19V116Z" transform="translate(-2.5 -2.24)"/>
    <path d="M331.3,119.62v30.66H312.73v-80h27.86q13.9,0,22,6.43t8.13,17.58a17.52,17.52,0,0,1-3.27,10.66,23.19,23.19,0,0,1-9.64,7.25q7.36,2.09,10.58,7a21.51,21.51,0,0,1,3.21,12.12v5.06a31.83,31.83,0,0,0,.93,7.14,9.45,9.45,0,0,0,3.24,5.71v1.1H356.64q-2.2-1.7-2.86-6a53.16,53.16,0,0,1-.66-8.08v-4.84q0-5.71-3-8.74t-8.85-3H331.3Zm0-14.29h9.4q5.61,0,8.57-2.56t3-7.34a10.56,10.56,0,0,0-3-7.89q-3-3-8.6-3H331.3v20.77Z" transform="translate(-2.5 -2.24)"/>
    <path d="M451.21,150.28H432.69L403.4,99.95l-0.33.11v50.22H384.5v-80h18.57l29.29,50.28,0.33-.11V70.27h18.52v80Z" transform="translate(-2.5 -2.24)"/>
    <path d="M506.82,134.73H483l-4.62,15.55H458.84l26.1-80h9.95v0.06l0.05-.06h9.95l26.16,80H511.49Zm-19.51-14.29h15.22L495.06,95.6h-0.33Z" transform="translate(-2.5 -2.24)"/>
    <path d="M555.34,136h34.34v14.29H536.76v-80h18.57V136Z" transform="translate(-2.5 -2.24)"/>
  </g>
</svg>
